<svg width="16" height="16" viewBox="0 0 16 16" fill="none" xmlns="http://www.w3.org/2000/svg">
<path fillRule="evenodd" clip-rule="evenodd" d="M8.00004 14.6667C11.6819 14.6667 14.6667 11.6819 14.6667 7.99999C14.6667 4.3181 11.6819 1.33333 8.00004 1.33333C4.31814 1.33333 1.33337 4.3181 1.33337 7.99999C1.33337 11.6819 4.31814 14.6667 8.00004 14.6667ZM7.44389 11.5518V12.6667H8.58471V11.5778C9.17413 11.5 9.66849 11.3012 10.0678 10.9815C10.4671 10.6617 10.6667 10.1951 10.6667 9.58148C10.6667 9.08888 10.498 8.65462 10.1605 8.2787C9.82298 7.90277 9.32624 7.62839 8.67027 7.45555C7.96677 7.27407 7.47241 7.10123 7.18721 6.93703C6.902 6.77283 6.7594 6.54814 6.7594 6.26296C6.7594 6.01234 6.86873 5.80277 7.08738 5.63425C7.30604 5.46574 7.62452 5.38148 8.04282 5.38148C8.40408 5.38148 8.68929 5.45061 8.89844 5.58888C9.10759 5.72716 9.2692 5.93456 9.38328 6.21111L10.4385 5.79629C10.2959 5.44197 10.0702 5.14166 9.76118 4.89537C9.45221 4.64907 9.06005 4.49135 8.58471 4.42222V3.33333H7.44389V4.42222C7.02559 4.46543 6.6168 4.64259 6.21751 4.9537C5.81822 5.26481 5.61858 5.70123 5.61858 6.26296C5.61858 6.72962 5.77069 7.125 6.07491 7.44907C6.37913 7.77314 6.94003 8.05185 7.75762 8.28518C8.51816 8.50987 9.00301 8.7108 9.21216 8.88796C9.42131 9.06512 9.52589 9.30493 9.52589 9.6074C9.52589 9.94444 9.39041 10.1929 9.11947 10.3528C8.84853 10.5126 8.51816 10.5926 8.12838 10.5926C7.67205 10.5926 7.30367 10.4846 7.02321 10.2685C6.74276 10.0525 6.53123 9.73703 6.38863 9.32222L5.33337 9.71111C5.5045 10.2469 5.77307 10.6617 6.13908 10.9556C6.50509 11.2494 6.94003 11.4481 7.44389 11.5518Z" fill="#59BF59"/>
</svg>
